<svg width="40" height="40" viewBox="0 0 40 40" fill="none" xmlns="http://www.w3.org/2000/svg">
<circle cx="20" cy="20" r="20" fill="#15202B"/>
<path d="M13.6465 29.7856C8.96597 25.1202 8.95538 17.5455 13.6228 12.867L17.9677 8.51187C18.3011 8.17769 18.8424 8.17694 19.1767 8.51018L37.094 26.3697L23.9358 39.559C23.8025 39.6927 23.586 39.693 23.4522 39.5597L13.6465 29.7856Z" fill="#12114A"/>
<path fill-rule="evenodd" clip-rule="evenodd" d="M32.1366 20.8501C30.5595 23.9315 27.3527 26.0407 23.6534 26.0407C18.3935 26.0407 14.1295 21.7767 14.1295 16.5168C14.1295 12.8172 16.2391 9.61022 19.3209 8.0332C13.0204 8.43364 8.03418 13.6706 8.03418 20.0722C8.03418 26.7347 13.4352 32.1357 20.0977 32.1357C26.4989 32.1357 31.7356 27.1501 32.1366 20.8501Z" fill="#E9A329"/>
<path fill-rule="evenodd" clip-rule="evenodd" d="M17.4052 23.7048C15.3982 21.9588 14.1295 19.386 14.1295 16.5168C14.1295 12.8172 16.2391 9.61022 19.3209 8.0332C13.0204 8.43364 8.03418 13.6706 8.03418 20.0722C8.03418 23.7343 9.666 27.0153 12.2422 29.2277L17.4052 23.7048Z" fill="#FFC61A"/>
<path d="M36.4101 25.7266L22.7349 38.8034L23.675 39.6582C26.3246 39.4018 32.1024 36.3249 34.0169 34.2736C35.4699 32.7168 35.8707 32.2441 36.4101 31.3676C37.0938 30.2565 37.977 28.6895 38.3759 27.6924L37.0938 26.4103L36.4101 25.7266Z" fill="#12114A"/>
</svg>
